<?xml version="1.0" encoding="UTF-8"?>
<svg id="Layer_1" xmlns="http://www.w3.org/2000/svg" width="160" height="50" viewBox="0 0 160 50">
  <defs>
    <style>
      .cls-1 { fill:rgb(255, 255, 255); stroke-width: 0px; }
      .cls-2 { fill: #ed1; stroke:rgb(255, 255, 255); stroke-miterlimit: 10; stroke-width: 0.5px; }
    </style>
  </defs>
  <g transform="scale(0.31) translate(0, 0)">
    <path class="cls-2" d="M281.01,74.3c-.97-2.26-2.53-4.03-4.43-4.97-12.35-6.1-31.2-6.23-31.2-6.23-9.39-31.82-31.15-34.31-56.61-34v-11.85L183.95.25h-7.42l4.82,16.69v87.96h68.59c0-8.4,5.4-15.21,12.05-15.21s12.05,6.81,12.05,15.21h20.04l-13.07-30.59ZM184.62,101.78h-1.24V16.74l-3.62-12.63,4.85,11.81v85.85ZM219.06,71.18c-13.15-4.13-12.78-19.34-12.78-19.34h20.7c-8.9-15.75-38.21-16.94-38.21-16.94,45.41-4.6,50.97,25.01,54.77,33.55,22.43.41,31.55,5.07,31.55,5.07-16.81-3.35-56.04-2.34-56.04-2.34Z"/>
    <polygon class="cls-2" points="173.55 104.9 .01 104.9 165.4 97.1 165.4 39.32 .01 31.95 173.55 31.95 173.55 104.9"/>
    <path class="cls-2" d="M261.99,92.62c-5.38,0-9.73,5.5-9.73,12.28h19.47c0-6.78-4.36-12.28-9.73-12.28Z"/>
    <path class="cls-1" d="M333.36,25.6h-7.19v-5.27h20.41v5.27h-7.19v28.37h-6.04v-28.37Z"/>
    <path class="cls-1" d="M359.35,39.63v14.35h-5.99V20.33h10.3c6.12,0,9.58,3.19,9.58,9.19,0,4.87-2.61,6.97-4.36,7.66,2.61,1.22,3.84,3.43,3.84,8.4v1.34c0,3.82.18,5.25.45,7.05h-5.83c-.49-1.54-.58-4.2-.58-7.1v-1.23c0-4.5-1.03-6.02-4.83-6.02h-2.58ZM359.35,34.75h2.83c3.64,0,5.06-1.56,5.06-4.97,0-2.9-1.38-4.58-4.47-4.58h-3.42v9.54Z"/>
    <path class="cls-1" d="M386.83,45.5l-1.67,8.47h-6.03l7.79-33.65h7.82l7.88,33.65h-6.32l-1.68-8.47h-7.79ZM393.54,40.28c-1.25-6.44-2.26-11.15-2.79-14.36h-.14c-.41,3.1-1.48,8.15-2.71,14.36h5.65Z"/>
    <path class="cls-1" d="M408.96,53.97V20.33h6.84c6.96,18.59,8.29,22.14,8.7,23.79h.05c-.29-4.04-.3-8.99-.3-14.51v-9.28h5.38v33.65h-6.56c-7.19-19.82-8.46-23.4-8.9-24.94h-.05c.25,4.15.25,9.1.25,15.13v9.81h-5.42Z"/>
    <path class="cls-1" d="M442.95,44.55c.29,2.79,1.41,5.25,4.49,5.25s4.07-1.86,4.07-4.36c0-2.76-1.36-4.37-5.62-6.4-5.76-2.74-8.02-5.16-8.02-10.15,0-5.4,3.47-9.08,9.55-9.08,7.57,0,9.44,5.12,9.54,9.5h-5.9c-.19-1.92-.69-4.75-3.74-4.75-2.38,0-3.45,1.55-3.45,3.83,0,2.42,1.08,3.56,5.02,5.39,6.04,2.79,8.75,5.5,8.75,11.13,0,5.28-3.27,9.65-10.38,9.65-7.74,0-10.09-4.95-10.3-10h6Z"/>
    <path class="cls-1" d="M465.31,20.33h10.12c5.56,0,9.72,3.33,9.72,10.01s-3.77,9.95-10.19,9.95h-3.62v13.68h-6.03V20.33ZM471.34,35.45h2.94c3.34,0,4.82-1.65,4.82-5.21,0-3.37-1.74-5.04-4.5-5.04h-3.26v10.25Z"/>
    <path class="cls-1" d="M513.71,36.89c0,12.3-3.34,17.66-11.1,17.66-7.25,0-10.78-5.28-10.78-17.73s4.11-17.03,11.05-17.03c7.33,0,10.83,5.42,10.83,17.1ZM498.01,36.77c0,7.98,1.21,12.73,4.74,12.73,3.72,0,4.78-4.4,4.78-12.72,0-7.82-1.13-11.89-4.79-11.89s-4.74,4.38-4.74,11.88Z"/>
    <path class="cls-1" d="M328.41,73.11h11.24v2.92h-8.08v11.3h7.6v2.92h-7.6v16.07h-3.16v-33.22Z"/>
    <path class="cls-1" d="M382.13,73.11h3.16v30.37h8.35l-.38,2.85h-11.13v-33.22Z"/>
    <path class="cls-1" d="M448.45,81.11v17.03c0,5.71-2.33,8.62-7.13,8.62-5.08,0-6.83-3.32-6.83-8.58v-17.05c0-5.47,2.42-8.45,7.05-8.45,4.88,0,6.91,3.46,6.91,8.44ZM437.71,81.03v17.36c0,3.96,1.44,5.5,3.76,5.5,2.44,0,3.75-1.5,3.75-5.67v-17.17c0-3.74-1.31-5.48-3.78-5.48s-3.73,1.66-3.73,5.47Z"/>
    <path class="cls-1" d="M494.97,106.33l-4.65-33.22h3.38c1.08,8.29,2.89,22.95,3.17,27.94h.07c.4-4.94,2.86-19.93,4.01-27.94h3.28c1.17,8.02,3.6,22.14,3.96,27.79h.13c.37-5.49,2.33-19.53,3.41-27.79h3.24l-5.07,33.22h-3.5c-1.12-7.84-3.34-21.99-3.89-27.17h-.07c-.67,5.75-2.79,19.36-4,27.17h-3.48Z"/>
  </g>
</svg>